simulation
nRows=31
nColumns=15
endheader
time  TH_x TH_y TH_z SC_y  SC_z  SC_x  AC_y  AC_z  AC_x  GH_y  GH_z  GH_yy  EL_x  PS_y
0.000000  0.000000  0.000000  0.000000  -15.050622  -0.191458  -4.513174  56.191635  9.862733  -3.368006  -0.677115  18.335665  32.579515  29.907603  90.727504
0.030303  0.000000  0.000000  0.000000  -15.209160  -0.009114  -3.761271  56.474796  9.755248  -3.094301  -0.214481  18.219301  31.277410  30.003620  90.726793
0.060606  0.000000  0.000000  0.000000  -15.462241  0.146142  -3.187908  56.845872  9.802561  -2.829334  0.823478  18.344910  29.214934  30.195759  90.587935
0.090909  0.000000  0.000000  0.000000  -15.793354  0.277722  -2.786063  57.300748  10.000074  -2.567595  2.328628  18.696000  26.509687  30.474380  90.330037
0.121212  0.000000  0.000000  0.000000  -16.185989  0.389038  -2.543763  57.835268  10.339615  -2.307370  4.192834  19.256079  23.279266  30.829845  89.972207
0.151515  0.000000  0.000000  0.000000  -16.623632  0.483501  -2.445552  58.445272  10.810434  -2.049606  6.307962  20.008657  19.641270  31.252512  89.533553
0.181818  0.000000  0.000000  0.000000  -17.089773  0.564525  -2.483069  59.125722  11.408007  -1.792027  8.565877  20.937239  15.713298  31.732744  89.033181
0.212121  0.000000  0.000000  0.000000  -17.567900  0.635521  -2.642167  59.872112  12.122971  -1.535906  10.858446  22.025335  11.612948  32.260901  88.490199
0.242424  0.000000  0.000000  0.000000  -18.041501  0.699901  -2.911980  60.679696  12.948702  -1.281052  13.077534  23.256453  7.457819  32.827342  87.923714
0.272727  0.000000  0.000000  0.000000  -18.494066  0.761078  -3.277474  61.544420  13.874761  -1.029500  15.115007  24.614100  3.365509  33.422429  87.352834
0.303030  0.000000  0.000000  0.000000  -18.909081  0.822463  -3.732616  62.461505  14.898318  -0.778816  16.862731  26.081785  -0.546383  34.036523  86.796666
0.333333  0.000000  0.000000  0.000000  -19.271365  0.887264  -4.259353  63.426744  16.006117  -0.532451  18.219552  27.642288  -4.166314  34.659996  86.274167
0.363636  0.000000  0.000000  0.000000  -19.587358  0.955365  -4.829284  64.417405  17.183258  -0.299533  19.198005  29.266547  -7.481367  35.283443  85.801851
0.393939  0.000000  0.000000  0.000000  -19.881098  1.023945  -5.387836  65.397731  18.396975  -0.099014  19.903121  30.915862  -10.558865  35.897632  85.394245
0.424242  0.000000  0.000000  0.000000  -20.177131  1.090105  -5.876080  66.331969  19.609366  0.053746  20.442613  32.551254  -13.468459  36.493338  85.065818
0.454545  0.000000  0.000000  0.000000  -20.500004  1.150946  -6.219918  67.186137  20.767490  0.142663  20.924195  34.133746  -16.279800  37.061339  84.831039
0.484848  0.000000  0.000000  0.000000  -20.873887  1.203607  -6.361225  67.924011  21.831875  0.163320  21.454112  35.624823  -19.061399  37.592445  84.704029
0.515152  0.000000  0.000000  0.000000  -21.305068  1.247119  -6.270709  68.538594  22.768027  0.120047  22.069077  37.007976  -21.827891  38.079249  84.682543
0.545455  0.000000  0.000000  0.000000  -21.774596  1.283176  -6.006677  69.058089  23.592613  0.042479  22.707634  38.297765  -24.517837  38.516851  84.741227
0.575758  0.000000  0.000000  0.000000  -22.261611  1.313673  -5.628826  69.514312  24.322053  -0.043856  23.300912  39.511094  -27.064056  38.900543  84.852978
0.606061  0.000000  0.000000  0.000000  -22.745253  1.340508  -5.204985  69.937998  24.980799  -0.113226  23.780040  40.664867  -29.399363  39.225615  84.990697
0.636364  0.000000  0.000000  0.000000  -23.204678  1.365574  -4.801700  70.360245  25.592368  -0.142602  24.076229  41.775980  -31.456650  39.487366  85.127300
0.666667  0.000000  0.000000  0.000000  -23.624991  1.390422  -4.467667  70.800566  26.175612  -0.118409  24.151886  42.857017  -33.197089  39.683365  85.242775
0.696970  0.000000  0.000000  0.000000  -24.006252  1.415739  -4.204865  71.249119  26.735703  -0.047790  24.047834  43.909737  -34.652937  39.816900  85.334877
0.727273  0.000000  0.000000  0.000000  -24.350830  1.442077  -3.994908  71.693491  27.263303  0.054661  23.817022  44.934222  -35.867445  39.892141  85.404110
0.757576  0.000000  0.000000  0.000000  -24.661098  1.469985  -3.824338  72.120298  27.753742  0.176817  23.512396  45.930557  -36.883861  39.913259  85.450978
0.787879  0.000000  0.000000  0.000000  -24.939425  1.500018  -3.679383  72.516018  28.202065  0.307065  23.186905  46.898825  -37.745436  39.884426  85.475984
0.818182  0.000000  0.000000  0.000000  -25.188394  1.532308  -3.542367  72.870806  28.599406  0.434003  22.885036  47.837924  -38.489912  39.810814  85.477832
0.848485  0.000000  0.000000  0.000000  -25.411567  1.565037  -3.408897  73.187744  28.948605  0.555506  22.611639  48.741196  -39.129234  39.702297  85.446795
0.878788  0.000000  0.000000  0.000000  -25.612796  1.595814  -3.289373  73.472125  29.266366  0.675389  22.359966  49.600360  -39.667798  39.570120  85.370681
0.909091  0.000000  0.000000  0.000000  -25.795933  1.622247  -3.169133  73.733414  29.545362  0.788948  22.123268  50.407133  -40.110000  39.425532  85.237294
